<svg xmlns="http://www.w3.org/2000/svg" width="340" height="200" viewBox="0 0 340 200"><style>* {
          font-family: ui-monospace, 'SF Mono', 'JetBrains Mono', Menlo, Consolas, monospace
        }</style><g class="gpsc-root"><rect x="1" y="1" rx="5" ry="5" height="99%" width="99.41176470588235%" stroke="#283040" stroke-width="1" fill="#0d1220" stroke-opacity="1"></rect><text x="30" y="40" class="gpsc-item" style="--gpsc-i: 0; font-size: 22px; fill: #79c0ff;">Top Languages by Commit</text><g transform="translate(0,40)"><g transform="translate(40,0)"><rect y="18" width="14" height="14" class="gpsc-item" style="--gpsc-i: 0; stroke-width: 1px;" fill="#f34b7d" stroke="#0d1220"></rect><rect y="43.2" width="14" height="14" class="gpsc-item" style="--gpsc-i: 1; stroke-width: 1px;" fill="#3178c6" stroke="#0d1220"></rect><rect y="68.4" width="14" height="14" class="gpsc-item" style="--gpsc-i: 2; stroke-width: 1px;" fill="#f1e05a" stroke="#0d1220"></rect><rect y="93.60000000000002" width="14" height="14" class="gpsc-item" style="--gpsc-i: 3; stroke-width: 1px;" fill="#a91e50" stroke="#0d1220"></rect><rect y="118.80000000000001" width="14" height="14" class="gpsc-item" style="--gpsc-i: 4; stroke-width: 1px;" fill="#DA5B0B" stroke="#0d1220"></rect><text x="16.8" y="30" class="gpsc-item" style="--gpsc-i: 0; fill: #e6edf3; font-size: 14px;">C++</text><text x="16.8" y="55.2" class="gpsc-item" style="--gpsc-i: 1; fill: #e6edf3; font-size: 14px;">TypeScript</text><text x="16.8" y="80.4" class="gpsc-item" style="--gpsc-i: 2; fill: #e6edf3; font-size: 14px;">JavaScript</text><text x="16.8" y="105.60000000000002" class="gpsc-item" style="--gpsc-i: 3; fill: #e6edf3; font-size: 14px;">EJS</text><text x="16.8" y="130.8" class="gpsc-item" style="--gpsc-i: 4; fill: #e6edf3; font-size: 14px;">Jupyter Notebook</text></g><g transform="translate( 230, 80 )"><g class="arc" style="--gpsc-i: 0;"><path d="M3.67394039744206e-15,-60A60,60,0,1,1,-53.87985947344888,26.40001407426521L-31.429918026178512,15.400008209988039A35,35,0,1,0,2.1431318985078682e-15,-35Z" style="fill: #f34b7d; stroke-width: 2px;" stroke="#0d1220"></path></g><g class="arc" style="--gpsc-i: 1;"><path d="M-53.87985947344888,26.40001407426521A60,60,0,0,1,-42.28191247981929,-42.5704108160692L-24.66444894656125,-24.832739642707033A35,35,0,0,0,-31.429918026178512,15.400008209988039Z" style="fill: #3178c6; stroke-width: 2px;" stroke="#0d1220"></path></g><g class="arc" style="--gpsc-i: 2;"><path d="M-42.28191247981929,-42.5704108160692A60,60,0,0,1,-14.541704225592763,-58.21115733444386L-8.482660798262446,-33.956508445092254A35,35,0,0,0,-24.66444894656125,-24.832739642707033Z" style="fill: #f1e05a; stroke-width: 2px;" stroke="#0d1220"></path></g><g class="arc" style="--gpsc-i: 3;"><path d="M-14.541704225592763,-58.21115733444386A60,60,0,0,1,-5.297082273034856,-59.7657169236068L-3.0899646592703327,-34.86333487210397A35,35,0,0,0,-8.482660798262446,-33.956508445092254Z" style="fill: #a91e50; stroke-width: 2px;" stroke="#0d1220"></path></g><g class="arc" style="--gpsc-i: 4;"><path d="M-5.297082273034856,-59.7657169236068A60,60,0,0,1,-1.1021821192326178e-14,-60L-6.429395695523604e-15,-35A35,35,0,0,0,-3.0899646592703327,-34.86333487210397Z" style="fill: #DA5B0B; stroke-width: 2px;" stroke="#0d1220"></path></g></g></g></g></svg>